#!OML:ASF H:\Not Pregnant\Project 1\Capture day 1\Session 1\non-pregnant.ASF
:FULLY-SPECIFIED
:DEGREES
507
root -0.00896003 14.9959 33.6937 -346.194 -242.097 -363.858
lowerback 1.36684 1.94439 0.596214
upperback -9.00855 3.08734 -0.0153321
thorax -10.2853 1.63339 -0.695979
lowerneck 19.5478 -11.263 -31.0132
upperneck -15.6741 -17.7406 44.4682
head 0.711739 -11.0173 24.0844
rclavicle 8.63844e-014 3.93594e-014
rhumerus -50.1158 34.5324 -120.167
rradius 71.886
rwrist 2.07526
rhand 2.28429 0.214941
rfingers 7.12502
rthumb 27.7764 -27.7527
lclavicle 8.63844e-014 3.93594e-014
lhumerus -36.3078 -37.0383 106.91
lradius 90.8775
lwrist 32.3291
lhand -17.5105 -22.3553
lfingers 7.12502
lthumb 8.74272 7.44368
rfemur -30.1817 16.6523 -8.97479
rtibia 36.9495
rfoot -19.1502 -5.39829
rtoes -23.075
lfemur -27.1275 1.20293 -7.71494
ltibia 36.6324
lfoot -30.3366 -15.361
ltoes -33.6566
508
root -0.096174 15.0633 33.6028 -345.4 -243.717 -362.934
lowerback 1.42538 1.84663 0.931402
upperback -9.08203 3.00664 0.289579
thorax -10.4061 1.58003 -0.554623
lowerneck 19.4291 -11.1082 -31.2496
upperneck -15.1552 -17.7259 44.3134
head 0.857384 -10.9904 24.0087
rclavicle -6.99598e-014 3.81667e-014
rhumerus -50.8407 35.7917 -120.948
rradius 72.4671
rwrist 4.0146
rhand 2.87723 1.57396
rfingers 7.12502
rthumb 28.3432 -26.3008
lclavicle -6.99598e-014 3.81667e-014
lhumerus -36.3841 -37.3598 106.302
lradius 91.7895
lwrist 32.9143
lhand -17.5539 -22.3087
lfingers 7.12502
lthumb 8.70087 7.49201
rfemur -31.007 15.8282 -7.75632
rtibia 38.0021
rfoot -18.3899 -6.44268
rtoes -22.1227
lfemur -26.4163 2.29329 -8.06595
ltibia 36.054
lfoot -29.9242 -15.0064
ltoes -33.0569
509
root -0.17894 15.1306 33.5148 -344.652 -245.324 -361.896
lowerback 1.61728 1.77716 1.29873
upperback -9.09014 2.95693 0.5409
thorax -10.5292 1.53261 -0.494045
lowerneck 19.3356 -10.9973 -31.3987
upperneck -14.6372 -17.7463 44.1603
head 1.00229 -10.9856 23.9004
rclavicle 5.13361e-014 -1.59028e-014
rhumerus -51.4142 36.8524 -121.595
rradius 72.9205
rwrist 5.74941
rhand 3.28511 2.50312
rfingers 7.12502
rthumb 28.733 -25.3062
lclavicle 5.13361e-014 -1.59028e-014
lhumerus -36.5732 -37.6849 105.618
lradius 92.7187
lwrist 33.6227
lhand -17.6444 -22.2283
lfingers 7.12502
lthumb 8.61353 7.57594
rfemur -31.5682 14.8875 -6.24621
rtibia 39.1552
rfoot -17.9567 -7.42265
rtoes -21.7087
lfemur -25.4794 3.2357 -8.36715
ltibia 35.3847
lfoot -29.5617 -14.3453
ltoes -32.9412
510
root -0.256754 15.1958 33.4297 -344.048 -246.929 -360.886
lowerback 1.9041 1.728 1.60851
upperback -9.04729 2.92353 0.740546
thorax -10.652 1.49257 -0.459842
lowerneck 19.2778 -10.915 -31.4912
upperneck -14.1112 -17.7967 44.0021
head 1.14714 -10.9997 23.7684
rclavicle 1.60767e-014 0
rhumerus -51.8675 37.7358 -122.109
rradius 73.2596
rwrist 7.21386
rhand 3.54377 3.02947
rfingers 7.12502
rthumb 28.98 -24.7377
lclavicle 1.60767e-014 0
lhumerus -36.8661 -37.9703 104.892
lradius 93.6481
lwrist 34.4238
lhand -17.7447 -22.1117
lfingers 7.12502
lthumb 8.51675 7.69654
rfemur -31.9142 13.8618 -4.57002
rtibia 40.4466
rfoot -17.7662 -8.31379
rtoes -21.6568
lfemur -24.357 4.05512 -8.6909
ltibia 34.6339
lfoot -29.194 -13.4843
ltoes -33.1266
511
root -0.329367 15.2579 33.348 -343.683 -248.552 -360.034
lowerback 2.24327 1.69486 1.81295
upperback -8.9608 2.89571 0.876337
thorax -10.7584 1.45897 -0.435995
lowerneck 19.2475 -10.8556 -31.5265
upperneck -13.5662 -17.8699 43.8317
head 1.29148 -11.0273 23.6088
rclavicle -1.69837e-014 -1.98785e-014
rhumerus -52.1975 38.4542 -122.496
rradius 73.4934
rwrist 8.32311
rhand 3.68964 3.21886
rfingers 7.12502
rthumb 29.1193 -24.5243
lclavicle -1.69837e-014 -1.98785e-014
lhumerus -37.2419 -38.1968 104.114
lradius 94.5642
lwrist 35.2965
lhand -17.8029 -21.9481
lfingers 7.12502
lthumb 8.46052 7.86243
rfemur -32.095 12.7912 -2.84125
rtibia 41.8942
rfoot -17.7254 -9.08088
rtoes -21.721
lfemur -23.086 4.73273 -9.08686
ltibia 33.817
lfoot -28.7986 -12.3974
ltoes -33.6116
512
root -0.396557 15.3153 33.2694 -343.661 -250.202 -359.487
lowerback 2.59398 1.6651 1.87571
upperback -8.84864 2.8535 0.948876
thorax -10.8454 1.42632 -0.398504
lowerneck 19.2527 -10.7971 -31.5571
upperneck -12.9884 -17.9575 43.6563
head 1.44201 -11.0644 23.4493
rclavicle 1.9953e-014 1.43125e-014
rhumerus -52.4494 39.036 -122.79
rradius 73.6289
rwrist 9.08364
rhand 3.65954 3.12491
rfingers 7.12502
rthumb 29.0906 -24.6232
lclavicle 1.9953e-014 1.43125e-014
lhumerus -37.7052 -38.3515 103.286
lradius 95.4556
lwrist 36.2189
lhand -17.7838 -21.7569
lfingers 7.12502
lthumb 8.47898 8.05286
rfemur -32.1596 11.6997 -1.16
rtibia 43.5019
rfoot -17.7689 -9.65533
rtoes -21.7925
lfemur -21.728 5.28422 -9.60053
ltibia 32.9679
lfoot -28.3465 -11.1596
ltoes -34.2426
513
root -0.458546 15.3667 33.1934 -344.078 -251.866 -359.367
lowerback 2.92314 1.62509 1.78931
upperback -8.71916 2.77745 0.967056
thorax -10.9034 1.38704 -0.3303
lowerneck 19.2648 -10.7309 -31.5985
upperneck -12.3607 -18.0495 43.4645
head 1.60422 -11.102 23.2845
rclavicle -1.11941e-014 -4.45278e-014
rhumerus -52.6537 39.5146 -123.006
rradius 73.679
rwrist 9.51382
rhand 3.43662 2.85285
rfingers 7.12502
rthumb 28.8777 -24.9319
lclavicle -1.11941e-014 -4.45278e-014
lhumerus -38.254 -38.429 102.415
lradius 96.3275
lwrist 37.1679
lhand -17.7221 -21.5389
lfingers 7.12502
lthumb 8.53854 8.26848
rfemur -32.1318 10.5893 0.41502
rtibia 45.25
rfoot -17.8904 -10.0311
rtoes -21.9595
lfemur -20.3452 5.74873 -10.2497
ltibia 32.1253
lfoot -27.7885 -9.98489
ltoes -34.6325
514
root -0.516073 15.4109 33.1189 -345.031 -253.514 -359.779
lowerback 3.21402 1.56065 1.5784
upperback -8.57677 2.65059 0.94038
thorax -10.9266 1.33169 -0.232098
lowerneck 19.2849 -10.6486 -31.6773
upperneck -11.6932 -18.1409 43.2607
head 1.77779 -11.1381 23.1287
rclavicle -2.54072e-014 -5.28767e-014
rhumerus -52.8247 39.91 -123.153
rradius 73.6507
rwrist 9.65991
rhand 3.01441 2.44662
rfingers 7.12502
rthumb 28.4743 -25.4063
lclavicle -2.54072e-014 -5.28767e-014
lhumerus -38.8828 -38.4049 101.517
lradius 97.1669
lwrist 38.1019
lhand -17.6414 -21.3202
lfingers 7.12502
lthumb 8.61642 8.48393
rfemur -32.0104 9.43963 1.85957
rtibia 47.1049
rfoot -18.0931 -10.1425
rtoes -22.2713
lfemur -18.9941 6.16308 -11.0303
ltibia 31.3413
lfoot -27.1654 -8.93575
ltoes -34.7912
515
root -0.570282 15.4487 33.0441 -346.511 -255.109 -360.78
lowerback 3.39383 1.47636 1.32159
upperback -8.43925 2.48505 0.849823
thorax -10.8862 1.25976 -0.167302
lowerneck 19.3153 -10.5634 -31.7523
upperneck -11.0033 -18.2316 43.0503
head 1.95354 -11.1736 22.9742
rclavicle 1.16289e-014 1.55052e-014
rhumerus -52.9248 40.1827 -123.209
rradius 73.5524
rwrist 9.60085
rhand 2.34993 1.97903
rfingers 7.12502
rthumb 27.8392 -25.9785
lclavicle 1.16289e-014 1.55052e-014
lhumerus -39.5846 -38.3484 100.59
lradius 97.9767
lwrist 39.0073
lhand -17.5507 -21.1001
lfingers 7.12502
lthumb 8.70391 8.70047
rfemur -31.8556 8.22829 3.16494
rtibia 49.0195
rfoot -18.3411 -9.97192
rtoes -22.71
lfemur -17.7887 6.46568 -11.9206
ltibia 30.6696
lfoot -26.5072 -7.92731
ltoes -34.8228
516
root -0.622083 15.4802 32.9673 -348.441 -256.619 -362.337
lowerback 3.41812 1.36596 1.03922
upperback -8.32445 2.28186 0.743673
thorax -10.777 1.17347 -0.095275
lowerneck 19.3682 -10.4733 -31.8396
upperneck -10.327 -18.3206 42.8175
head 2.11855 -11.2089 22.815
rclavicle 3.55576e-014 1.31198e-014
rhumerus -52.9833 40.3639 -123.14
rradius 73.4035
rwrist 9.3922
rhand 1.57533 1.52537
rfingers 7.12502
rthumb 27.0984 -26.5497
lclavicle 3.55576e-014 1.31198e-014
lhumerus -40.3308 -38.1447 99.7183
lradius 98.7073
lwrist 39.7988
lhand -17.4606 -20.8858
lfingers 7.12502
lthumb 8.79093 8.9111
rfemur -31.7148 6.93001 4.36084
rtibia 50.9457
rfoot -18.6222 -9.49298
rtoes -23.2473
lfemur -16.8244 6.71484 -12.8808
ltibia 30.1614
lfoot -25.862 -6.97413
ltoes -34.8461
517
root -0.672108 15.5062 32.8884 -350.764 -258.059 -364.428
lowerback 3.24633 1.24548 0.808992
upperback -8.23866 2.06969 0.602665
thorax -10.5782 1.0794 -0.0835875
lowerneck 19.4366 -10.3817 -31.9237
upperneck -9.66167 -18.405 42.5816
head 2.27543 -11.2429 22.6612
rclavicle -6.98231e-015 1.70955e-014
rhumerus -52.962 40.4286 -122.946
rradius 73.219
rwrist 9.06243
rhand 0.710744 1.06269
rfingers 7.12502
rthumb 26.271 -27.1385
lclavicle -6.98231e-015 1.70955e-014
lhumerus -41.1095 -37.8926 98.8656
lradius 99.3633
lwrist 40.4974
lhand -17.3838 -20.7016
lfingers 7.12502
lthumb 8.86502 9.09221
rfemur -31.6362 5.56083 5.4755
rtibia 52.8402
rfoot -18.8982 -8.73283
rtoes -23.9264
lfemur -16.1579 6.94077 -13.8799
ltibia 29.856
lfoot -25.2651 -6.00289
ltoes -35.0196
518
root -0.720439 15.527 32.807 -353.496 -259.452 -367.066
lowerback 2.88831 1.13356 0.649177
upperback -8.18427 1.87815 0.438449
thorax -10.2995 0.990894 -0.135176
lowerneck 19.5149 -10.3322 -31.8205
upperneck -9.15609 -18.4229 42.676
head 2.36651 -11.2542 22.0398
rclavicle 8.69683e-016 2.78299e-014
rhumerus -52.8657 40.3669 -122.616
rradius 73.0205
rwrist 8.62751
rhand -0.197631 0.588034
rfingers 7.12502
rthumb 25.4011 -27.7398
lclavicle 8.69683e-016 2.78299e-014
lhumerus -41.9061 -37.5853 98.067
lradius 99.9315
lwrist 41.0762
lhand -17.292 -20.537
lfingers 7.12502
lthumb 8.95362 9.25301
rfemur -31.6246 4.15512 6.53731
rtibia 54.6688
rfoot -19.1495 -7.71069
rtoes -24.7082
lfemur -15.7949 7.17201 -14.8924
ltibia 29.7844
lfoot -24.737 -4.99253
ltoes -35.3887
519
root -0.767347 15.5425 32.7246 -356.7 -260.836 -370.283
lowerback 2.38858 1.04753 0.562084
upperback -8.15357 1.73178 0.264244
thorax -9.96108 0.919913 -0.241514
lowerneck 19.6593 -10.247 -31.8721
upperneck -8.57513 -18.5057 42.4326
head 2.48368 -11.2931 21.9012
rclavicle -1.06847e-014 2.78299e-015
rhumerus -52.6898 40.1773 -122.148
rradius 72.836
rwrist 8.05321
rhand -1.03079 0.0888912
rfingers 7.12502
rthumb 24.6027 -28.35
lclavicle -1.06847e-014 2.78299e-015
lhumerus -42.7191 -37.2497 97.3277
lradius 100.42
lwrist 41.5354
lhand -17.2212 -20.3976
lfingers 7.12502
lthumb 9.02187 9.3895
rfemur -31.6608 2.76954 7.5892
rtibia 56.4072
rfoot -19.3505 -6.4605
rtoes -25.5358
lfemur -15.6995 7.47261 -15.8779
ltibia 29.9581
lfoot -24.2852 -3.97134
ltoes -35.9095
520
root -0.813033 15.5526 32.6427 -360.656 -262.259 -374.315
lowerback 1.81191 0.993413 0.527121
upperback -8.13896 1.63777 0.105568
thorax -9.5956 0.872326 -0.365651
lowerneck 19.8347 -10.148 -31.966
upperneck -8.031 -18.5797 42.2079
head 2.59171 -11.3325 21.7934
rclavicle -1.04859e-014 -2.62396e-014
rhumerus -52.4825 39.9099 -121.586
rradius 72.6843
rwrist 7.33961
rhand -1.88288 -0.530488
rfingers 7.12502
rthumb 23.7857 -29.0782
lclavicle -1.04859e-014 -2.62396e-014
lhumerus -43.5575 -36.8649 96.653
lradius 100.833
lwrist 41.8779
lhand -17.1764 -20.3028
lfingers 7.12502
lthumb 9.06508 9.48244
rfemur -31.708 1.47019 8.66101
rtibia 58.0373
rfoot -19.463 -5.05238
rtoes -26.4376
lfemur -15.812 7.91109 -16.8077
ltibia 30.3752
lfoot -23.9132 -3.02099
ltoes -36.4408
